<?xml version="1.0" encoding="iso-8859-1"?>
<!-- Generator: Adobe Illustrator 16.0.0, SVG Export Plug-In . SVG Version: 6.00 Build 0)  -->
<!DOCTYPE svg PUBLIC "-//W3C//DTD SVG 1.1//EN" "http://www.w3.org/Graphics/SVG/1.1/DTD/svg11.dtd">
<svg version="1.1" id="Capa_1" xmlns="http://www.w3.org/2000/svg" xmlns:xlink="http://www.w3.org/1999/xlink" x="0px" y="0px"
	 width="467.488px" height="467.488px" viewBox="0 0 467.488 467.488" style="enable-background:new 0 0 467.488 467.488;"
	 xml:space="preserve">
<g>
	<g>
		<path d="M112.744,280.379c41.344,0,76.159-22.729,86.75-53.699v-39.556c-10.591-30.97-45.406-53.699-86.75-53.699
			s-76.159,22.729-86.75,53.699v39.556C36.585,257.648,71.4,280.379,112.744,280.379z M47.659,206.901
			c11.118,20.304,36.063,34.462,65.085,34.462s53.967-14.158,65.086-34.462v19.906c-11.131,20.289-36.076,34.433-65.086,34.433
			c-29.011,0-53.955-14.145-65.085-34.433V206.901z"/>
		<polygon points="410.285,36.551 214.507,328.928 78.611,318.527 0,374.922 64.332,445.547 250.471,412.551 467.488,21.941 		"/>
	</g>
</g>
<g>
</g>
<g>
</g>
<g>
</g>
<g>
</g>
<g>
</g>
<g>
</g>
<g>
</g>
<g>
</g>
<g>
</g>
<g>
</g>
<g>
</g>
<g>
</g>
<g>
</g>
<g>
</g>
<g>
</g>
</svg>
